<mxfile host="app.diagrams.net" agent="Mozilla/5.0 (Windows NT 10.0; Win64; x64) AppleWebKit/537.36 (KHTML, like Gecko) Chrome/128.0.0.0 Safari/537.36" version="24.7.17">
  <diagram name="Page-1" id="BDMaca4tNWh2_gFdrc6Y">
    <mxGraphModel dx="429" dy="552" grid="1" gridSize="10" guides="1" tooltips="1" connect="1" arrows="1" fold="1" page="1" pageScale="1" pageWidth="850" pageHeight="1100" math="0" shadow="0">
      <root>
        <mxCell id="0" />
        <mxCell id="1" parent="0" />
        <mxCell id="cHG2QNLBliySzH62v2Su-18" style="edgeStyle=orthogonalEdgeStyle;rounded=0;orthogonalLoop=1;jettySize=auto;html=1;exitX=0.5;exitY=1;exitDx=0;exitDy=0;entryX=0;entryY=0.5;entryDx=0;entryDy=0;" parent="1" edge="1">
          <mxGeometry relative="1" as="geometry">
            <mxPoint x="140" y="650.0000000000002" as="targetPoint" />
            <Array as="points">
              <mxPoint x="200" y="810" />
              <mxPoint x="90" y="810" />
              <mxPoint x="90" y="650" />
            </Array>
          </mxGeometry>
        </mxCell>
        <mxCell id="igHqzqHm9EhPJ2wOzE6z-2" value="" style="edgeStyle=none;curved=1;rounded=0;orthogonalLoop=1;jettySize=auto;html=1;fontSize=12;startSize=8;endSize=8;" edge="1" parent="1" source="Dd2x5SI80GlNWn_Gx7xL-1" target="igHqzqHm9EhPJ2wOzE6z-1">
          <mxGeometry relative="1" as="geometry" />
        </mxCell>
        <mxCell id="Dd2x5SI80GlNWn_Gx7xL-1" value="start" style="ellipse;whiteSpace=wrap;html=1;" parent="1" vertex="1">
          <mxGeometry x="153" y="95" width="100" height="60" as="geometry" />
        </mxCell>
        <mxCell id="igHqzqHm9EhPJ2wOzE6z-4" value="" style="edgeStyle=none;curved=1;rounded=0;orthogonalLoop=1;jettySize=auto;html=1;fontSize=12;startSize=8;endSize=8;" edge="1" parent="1" source="igHqzqHm9EhPJ2wOzE6z-1" target="igHqzqHm9EhPJ2wOzE6z-3">
          <mxGeometry relative="1" as="geometry" />
        </mxCell>
        <mxCell id="igHqzqHm9EhPJ2wOzE6z-1" value="A = user input (int)&lt;div&gt;B = user input (int)&lt;br&gt;&lt;/div&gt;" style="whiteSpace=wrap;html=1;" vertex="1" parent="1">
          <mxGeometry x="143" y="190" width="120" height="60" as="geometry" />
        </mxCell>
        <mxCell id="igHqzqHm9EhPJ2wOzE6z-6" value="" style="edgeStyle=none;curved=1;rounded=0;orthogonalLoop=1;jettySize=auto;html=1;fontSize=12;startSize=8;endSize=8;" edge="1" parent="1" source="igHqzqHm9EhPJ2wOzE6z-3" target="igHqzqHm9EhPJ2wOzE6z-5">
          <mxGeometry relative="1" as="geometry" />
        </mxCell>
        <mxCell id="igHqzqHm9EhPJ2wOzE6z-3" value="output = A squared + B" style="whiteSpace=wrap;html=1;" vertex="1" parent="1">
          <mxGeometry x="143" y="290" width="120" height="60" as="geometry" />
        </mxCell>
        <mxCell id="igHqzqHm9EhPJ2wOzE6z-5" value="return output" style="ellipse;whiteSpace=wrap;html=1;" vertex="1" parent="1">
          <mxGeometry x="153" y="380" width="100" height="60" as="geometry" />
        </mxCell>
      </root>
    </mxGraphModel>
  </diagram>
</mxfile>
